<svg viewBox="0 0 1547 1086" xmlns="http://www.w3.org/2000/svg"><path d="m162 473c-3 0-4-1-6-2-1-2-1-4-1-7s0-6 1-7c2-2 3-3 6-3 2 0 4 1 5 3 1 1 2 4 2 7s-1 5-2 7c-1 1-3 2-5 2zm107-114c-1 0-3 0-4-1-2-1-3-4-3-7 0-2 1-4 1-6 1-2 3-4 6-4s4 1 5 3 2 4 2 6c0 3-1 5-2 7s-3 2-5 2zm-35 115c-1 0-2 0-3-1 0 0-1-1-1-3 0-1 1-2 2-3s2-1 4-1l2-1h2l1-1v3c0 3-1 5-2 6s-3 1-5 1zm-161-11h-11l5-16zm164-111h1c1 0 2-1 3-1h1v2c0 3-1 5-2 6-2 1-3 1-5 1h-3c0-1-1-2-1-3 0-2 1-3 2-4 1 0 2-1 4-1zm35 47c-1 1-2 1-4 1h-8v-12h8c2 0 3 1 4 2 2 0 2 2 2 4s0 4-2 5zm27-1c2 0 3 0 5 1 1 1 2 3 2 5h-14c0-2 1-4 2-5s3-1 5-1zm0 56c2 0 4 1 5 3 1 1 2 4 2 7s-1 5-2 7c-1 1-3 2-5 2-3 0-5-1-6-2-1-2-2-4-2-7s1-6 2-7c1-2 3-3 6-3zm75-137h868c169 0 305 120 305 267v325h-1122c-168 0-305-119-305-266v-98c-70-26-120-88-120-161 0-97 87-175 194-175 82 0 151 45 180 108zm-49 18h-7v30h8v-21c1-2 3-3 6-3 2 0 3 1 4 2s1 2 1 4v18h8v-20c0-4-1-7-3-8-2-2-5-3-8-3-2 0-4 1-6 2l-3 3zm11 122c1 1 1 2 1 3v19h8v-21c0-3-1-6-3-8-2-1-5-2-8-2-2 0-4 0-6 2-1 0-2 2-3 3v-4h-7v30h8v-21c1-2 3-4 6-4 2 0 3 1 4 3zm1-76v41h8v-41zm-13 11h-7v30h8v-14c0-3 0-5 1-6 1-2 3-3 6-3h2v-8h-1c-2 0-4 1-6 2 0 1-2 2-3 4zm-21-51c1 1 2 2 2 3s-1 2-2 2-2 1-3 1h-3c-3 1-5 1-7 2-3 2-4 4-4 8 0 3 1 5 3 7 1 1 4 2 6 2 3 0 5 0 6-1 2-1 3-2 4-3v2s0 1 1 1h8v-1s-1 0-1-1v-19c0-4-2-6-4-8-3-1-6-2-9-2-5 0-9 2-11 4-1 2-2 4-2 7h8c0-1 0-2 1-3 0-1 2-1 4-1zm-8 75c-2-2-3-4-3-7h22v-6c-1-2-1-4-3-6-1-2-3-4-5-5s-4-1-7-1c-4 0-8 1-11 4s-4 7-4 12c0 6 2 10 5 12 3 3 6 4 10 4 5 0 9-1 12-4l3-6h-8c-1 1-1 2-2 2-1 1-3 2-4 2-2 0-4-1-5-1zm19 48c0-5-1-8-4-12-2-3-6-4-11-4-6 0-10 1-12 4-3 4-4 7-4 12 0 4 1 8 4 11 2 3 6 5 12 5 5 0 9-2 11-5 3-3 4-7 4-11zm-52-129h-7v42h8v-16c0 2 1 3 2 3 2 1 4 2 6 2 4 0 7-1 10-4 2-3 3-7 3-12s-1-9-4-12c-2-2-5-4-9-4-2 0-4 1-6 2l-3 3zm7 46h-17v41h8v-15h9c4 0 8-1 10-3s4-5 4-10c0-4-2-8-4-10s-6-3-10-3zm2 57v7h8v-7zm8 41v-30h-8v30zm-15-6c-1-1-1-1-1-3v-15h5v-6h-5v-9h-8v9h-4v6h4v18c0 2 1 3 2 4 1 2 3 2 7 2h4v-6zm-23-132c1 1 1 2 1 3s0 2-2 2c0 0-1 1-3 1h-2c-4 1-6 1-7 2-3 2-5 4-5 8 0 3 1 5 3 7 2 1 4 2 7 2 2 0 4 0 6-1l3-3s0 1 1 2v1h9v-1c-1 0-1 0-1-1-1 0-1-1-1-2v-17c0-4-1-6-4-8-2-1-5-2-9-2-5 0-8 2-11 4-1 2-2 4-2 7h8c0-1 0-2 1-3s2-1 4-1zm-14 122c-3 1-5 4-5 8 0 3 1 5 3 6 2 2 4 3 7 3 2 0 4-1 6-2 1-1 2-2 4-3v4h9v-1l-1-1c-1-1-1-1-1-2v-18c0-3-1-6-4-7-2-1-5-2-9-2-5 0-8 1-10 4-2 2-2 4-3 6h8c0-1 1-2 1-2 1-1 2-2 4-2s3 0 4 1c1 0 1 1 1 3 0 1 0 1-1 2h-4l-2 1c-3 0-6 1-7 2zm-25-113h-9v1c0 4 1 8 3 11s5 4 11 4c5 0 8-2 10-5 2-2 2-5 2-8v-29h-8v29c0 2-1 3-1 4-1 2-2 2-4 2s-3 0-3-2c-1-1-1-3-1-6zm9 88v7h8v-7zm8 41v-30h-8v30zm-36-27c-2 3-4 7-4 12s2 9 4 12c2 2 6 4 11 4 4 0 8-2 11-5 1-2 2-5 2-7h-8c0 1-1 3-1 4-1 1-2 1-4 1-3 0-5-1-6-4v-10c1-3 3-4 6-4 2 0 3 0 4 1s1 2 1 3h8c0-4-2-7-4-9-2-1-6-2-9-2-5 0-8 1-11 4zm-33 0c-2 4-4 7-4 12 0 4 2 8 4 11 3 3 7 5 12 5s9-2 11-5c3-3 4-7 4-11 0-5-1-8-4-12-2-3-6-4-11-4s-9 1-12 4zm-75 18 2 9h10l-15-41h-9l-15 41h9l3-9zm37 7c2-2 3-4 3-7s-1-4-2-6c-2-1-4-3-7-3-5-1-8-2-9-3-1 0-1-1-1-2 0 0 0-1 1-1 1-1 2-1 4-1s3 0 4 1 1 2 1 3h8c0-4-2-6-4-8s-5-2-9-2-7 1-10 3c-2 2-3 4-3 7 0 2 1 4 2 5 2 2 4 3 8 4s7 2 8 2 1 1 1 2-1 2-1 2c-1 1-3 1-4 1-3 0-5-1-6-2 0 0-1-1-1-3h-8c0 3 1 6 4 8 2 2 5 3 10 3s8-1 11-3zm29 0c2-2 4-4 4-7s-1-4-3-6c-1-1-4-3-7-3-5-1-7-2-8-3-1 0-1-1-1-2 0 0 0-1 1-1 1-1 2-1 3-1 3 0 4 0 5 1 0 1 1 2 1 3h8c-1-4-2-6-4-8-3-2-6-2-10-2s-7 1-9 3-3 4-3 7c0 2 1 4 2 5 1 2 4 3 7 4 5 1 8 2 8 2 1 0 2 1 2 2s-1 2-2 2c-1 1-2 1-4 1s-4-1-5-2c-1 0-1-1-1-3h-8c0 3 1 6 3 8 3 2 6 3 11 3s8-1 10-3zm284 407h1097v-300c0-134-125-242-280-242h-859c4 13 6 27 6 42 0 96-87 175-195 175-17 0-33-2-49-6v90c0 133 126 241 280 241zm-126-532h2c1 0 2-1 2-1h2v2c0 3-1 5-3 6-1 1-3 1-4 1h-3c-1-1-1-2-1-3 0-2 0-3 2-4 0 0 2-1 3-1zm854 32h69c139 0 251 93 251 207v254h-64v-244c0-86-91-156-202-156h-54v166h192v64h-192v170h-64v-461zm-694 400h55v-400h64v461h-134c-138 0-251-93-251-208v-22h67v17c0 84 89 152 199 152zm245-400h144c57 0 107 25 141 64 25 30 41 68 41 110s-16 80-41 110c-34 39-84 64-141 64h-80v-64h88c58-6 103-53 103-110s-45-104-103-110h-152v397h-64v-461z"/></svg>